<svg width="100" height="437" viewBox="0 0 100 437" fill="none" xmlns="http://www.w3.org/2000/svg">
<path d="M39.5 25.123V7.62305L49 0.623047L59 8.12305V18.623H61V26.623H63.5V46.123H67.5L68 47.623H70.5V78.123H72L75 78.623L76.5 81.623V97.123H81.5V154.623H86.5V163.623L82.5 167.123L83 191.123L80 194.123V196.623H83L83.5 211.623H81.5V215.623H83V225.623H85.5V230.123L76 237.123V238.123H78.5L81.5 240.123V245.623H84.5V291.623V301.123L89 303.623V387.123L91.5 385.623V384.623H94.5V388.623L99.5 393.123V402.123L46.5 436.123L0.5 408.123V396.623L3.5 396.123V387.623H6V379.123L7 377.623V308.623L6 307.123V301.623L7.5 299.123L4 296.623V286.623L10 282.123L6 279.123V265.123L3 262.623V259.123L7 257.123V255.623L4 253.623V239.623L11.5 237.123V233.623V212.623L7 208.623V173.123L12 170.123V166.123L3.5 163.123V155.623L12 150.623V149.875V109.623L18 107.623V104.623L22.5 103.123V82.123H26.5V81.623V70.623H31V64.623H26.5V60.623L31 53.123L30.5 37.123L35.5 34.123V28.623L39.5 25.123Z" stroke="black"/>
</svg>
